<?xml version="1.0" standalone="no"?>
<!DOCTYPE svg PUBLIC "-//W3C//DTD SVG 1.1//EN" "http://www.w3.org/Graphics/SVG/1.1/DTD/svg11.dtd" >
<svg xmlns="http://www.w3.org/2000/svg" xmlns:xlink="http://www.w3.org/1999/xlink" version="1.1">
<metadata>
Created by FontForge 20161013 at Mon Apr 10 19:29:36 2017
 By ,,,
Copyright (c) 2017 by Heroglyphs. All rights reserved.
</metadata>
<defs>
<font id="MeidyRegular" horiz-adv-x="478" >
  <font-face 
    font-family="Meidy Regular"
    font-weight="400"
    font-stretch="normal"
    units-per-em="1000"
    panose-1="2 0 5 6 0 0 0 2 0 4"
    ascent="750"
    descent="-250"
    x-height="714"
    cap-height="784"
    bbox="-6 -129 951 801"
    underline-thickness="50"
    underline-position="-200"
    unicode-range="U+000D-E00D"
  />
<missing-glyph horiz-adv-x="360" 
 />
    <glyph glyph-name=".notdef" horiz-adv-x="360" 
 />
    <glyph glyph-name=".null" horiz-adv-x="0" 
 />
    <glyph glyph-name="nonmarkingreturn" horiz-adv-x="333" 
 />
    <glyph glyph-name="NULL" horiz-adv-x="0" 
 />
    <glyph glyph-name="NULL" horiz-adv-x="0" 
 />
    <glyph glyph-name="CR" unicode="&#xd;" horiz-adv-x="360" 
 />
    <glyph glyph-name="space" unicode=" " horiz-adv-x="360" 
 />
    <glyph glyph-name="exclam" unicode="!" horiz-adv-x="190" 
d="M104 154h-87l-17 614h126zM121 64q0 25 -17.5 43t-42.5 18t-43 -17.5t-18 -43.5q0 -25 18 -42.5t43 -17.5t42.5 17.5t17.5 42.5z" />
    <glyph glyph-name="quotedbl" unicode="&#x22;" horiz-adv-x="236" 
d="M83 657h-83v125h83v-125zM197 657h-83v125h83v-125z" />
    <glyph glyph-name="numbersign" unicode="#" horiz-adv-x="695" 
d="M637 444h-140l-42 -138h150l-20 -90h-158l-40 -133h-95l41 133h-136l-41 -133h-94l41 133h-103l29 90h101l42 138h-121l30 90h119l33 107h94l-33 -107h136l33 107h94l-33 -107h132zM360 306l42 138h-135l-43 -138h136z" />
    <glyph glyph-name="dollar" unicode="$" 
d="M411 500h-112v54q0 38 -27.5 64.5t-66.5 26.5q-38 0 -65.5 -27t-27.5 -64q0 -66 58 -100v1l102 -44q63 -27 101 -84t38 -125q0 -71 -44.5 -125.5t-112.5 -70.5v-48h-98v48q-67 16 -111.5 70.5t-44.5 125.5v54h112v-54q0 -37 27.5 -63.5t65.5 -26.5q39 0 66.5 26.5
t27.5 63.5q0 35 -19.5 64t-52.5 42l-20 9l-68 28q-63 28 -101 85t-38 124q0 71 44.5 125.5t111.5 70.5v51h98v-51q68 -16 112.5 -70.5t44.5 -125.5v-54z" />
    <glyph glyph-name="percent" unicode="%" horiz-adv-x="560" 
d="M131 450q35 0 61.5 21.5t33.5 55.5q30 102 0 183q-7 33 -33.5 54.5t-61.5 21.5h-22q-35 0 -61.5 -21.5t-33.5 -55.5q-30 -102 0 -184q7 -32 34 -53.5t61 -21.5h22zM109 703h22q12 0 14 -11l1 -4l1 -3q4 -10 6 -21t3 -21t1 -20t-0.5 -19.5t-2 -17.5t-2.5 -15t-2 -11.5
t-2 -7.5l-1 -3l-1 -3l-1 -3q-2 -10 -14 -10h-22q-12 0 -14 10l-1 4l-1 4q-4 10 -6 20.5t-3 20.5t-1 20.5t0.5 19.5t2 17.5t2.5 15t2 11.5t2 8l1 3l1 2l1 3q2 11 14 11zM413 4q35 0 62 21.5t34 54.5q29 103 -1 184q-7 33 -33.5 54t-61.5 21h-21q-35 0 -62 -21.5t-34 -54.5
q-29 -100 0 -184q8 -33 34.5 -54t61.5 -21h21zM392 257h21q13 0 15 -11v-4l2 -4q4 -10 6 -20.5t3 -20.5t0.5 -20.5t-1 -19.5t-1.5 -17t-2.5 -15t-2.5 -11.5t-2 -7.5l-1 -3l-1 -3v-3q-2 -10 -15 -10h-21q-13 0 -15 10l-1 4l-1 4q-11 32 -10 62t5.5 51.5t5.5 21.5l1 3v3
q2 11 15 11zM377 788h125l-354 -782h-130z" />
    <glyph glyph-name="ampersand" unicode="&#x26;" horiz-adv-x="664" 
d="M257 -9h-50q-89 0 -148 59.5t-59 147.5q0 40 21 90t62 69l28 14q-4 6 -7 10l-4 6q-50 77 -50 164q0 100 32 155q47 82 150 82q101 0 156 -77q45 -64 45 -160q0 -29 -2 -50t-9 -47t-20 -45t-36 -38t-56 -34l-23 -11q59 -70 121 -113q15 50 15 117v58h195v-116h-82
q-6 -60 -24 -112q68 -23 136 -22l1 -116h-3q-106 0 -198 38q-71 -69 -191 -69zM133 253q-6 -7 -12 -25t-6 -30q0 -41 25.5 -66.5t66.5 -25.5h50q47 0 80 15q-84 59 -157 154zM232 672q-15 0 -23.5 -2.5t-20 -12.5t-17 -36.5t-5.5 -69.5q0 -55 30 -100l4 -6q3 -4 8.5 -12
t8.5 -12l46 22q35 15 44.5 34t9.5 74q0 121 -85 121z" />
    <glyph glyph-name="quotesingle" unicode="'" horiz-adv-x="165" 
d="M83 657h-83v125h83v-125z" />
    <glyph glyph-name="parenleft" unicode="(" horiz-adv-x="237" 
d="M174 110v-113q-56 5 -97 50t-51 112q-24 96 -24.5 209.5t7 162t16.5 88.5q10 68 51.5 113t97.5 50v-113q-24 -5 -41.5 -25t-21.5 -48v-3l-1 -4q-4 -7 -12.5 -59.5t-9 -153t21.5 -186.5l1 -4v-4q4 -28 21.5 -48t41.5 -24z" />
    <glyph glyph-name="parenright" unicode=")" horiz-adv-x="221" 
d="M0 669v113q56 -5 97.5 -50t51.5 -112q24 -96 24 -210t-7.5 -162.5t-16.5 -88.5q-10 -67 -51.5 -112t-97.5 -50v113q24 4 41.5 24t21.5 48l1 4v4q4 7 12 61.5t11 148.5t-22 188l-1 4l-1 4q-4 28 -21.5 48t-41.5 25z" />
    <glyph glyph-name="asterisk" unicode="*" horiz-adv-x="261" 
d="M203 723l-46 -32l46 -32l-37 -52l-33 23v-32h-64v32l-32 -23l-37 52l46 32l-46 32l37 52l32 -23v33h64v-33l33 23z" />
    <glyph glyph-name="plus" unicode="+" horiz-adv-x="347" 
d="M314 386v-88h-113v-113h-88v113h-113v88h113v113h88v-113h113z" />
    <glyph glyph-name="comma" unicode="," horiz-adv-x="174" 
d="M124 61q1 -4 1.5 -11t-2 -25.5t-9.5 -33.5t-24.5 -29.5t-43.5 -18.5v25q27 10 34 33q-12 -2 -18 -2q-26 0 -44 18t-18 44q0 25 18 43t44 18t44 -18t18 -43z" />
    <glyph glyph-name="hyphen" unicode="-" horiz-adv-x="347" 
d="M314 303h-314v87h314v-87z" />
    <glyph glyph-name="period" unicode="." horiz-adv-x="158" 
d="M124 59q0 -26 -18 -44t-44 -18t-44 18t-18 44q0 25 18 43.5t44 18.5t44 -18.5t18 -43.5z" />
    <glyph glyph-name="slash" unicode="/" horiz-adv-x="805" 
d="M772 786l-639 -778h-133l644 778h128z" />
    <glyph glyph-name="zero" unicode="0" horiz-adv-x="562" 
d="M278 5h-53q-70 0 -124 43t-68 110q-24 66 -31 141.5t1.5 138.5t15.5 97.5t14 57.5q13 68 67 111.5t125 43.5h53q71 0 125 -43t67 -110q24 -66 31 -141.5t-1 -138.5t-15 -98.5t-14 -56.5q-13 -67 -67.5 -111t-125.5 -44zM225 115h53q32 0 56.5 19t28.5 48l1 4l1 3
q2 2 11 42t15.5 105t-3.5 137l-240 -315q25 -43 77 -43zM278 638h-53q-31 0 -55.5 -19t-29.5 -48v-4l-2 -4l-2 -8q-2 -8 -5.5 -21.5t-7 -32t-6.5 -41.5t-5 -48t-2 -54t3 -57l232 307q-27 30 -67 30z" />
    <glyph glyph-name="one" unicode="1" horiz-adv-x="254" 
d="M151 748h33v-743h-109v622h-75l75 120v1v0h76z" />
    <glyph glyph-name="two" unicode="2" horiz-adv-x="534" 
d="M463 6h-463v55q0 57 25 108t69 85l195 149q56 43 56 118v33q0 37 -24 63t-58 26h-53q-41 0 -71 -32t-30 -77h-109q0 91 61.5 155t148.5 64h53q80 0 136 -58.5t56 -140.5v-33q0 -60 -26.5 -114.5t-73.5 -89.5l-195 -150q-26 -20 -40 -52h343v-109z" />
    <glyph glyph-name="three" unicode="3" horiz-adv-x="525" 
d="M455 554v-33q0 -88 -53 -157q53 -50 53 -128v-33q0 -82 -56.5 -140t-135.5 -58h-53q-87 0 -148.5 64t-61.5 154h109q0 -45 30 -77t71 -32h53q34 0 58 26t24 63v33q0 24 -7.5 36t-33.5 33h-112v110h110q43 43 43 106v33q0 37 -24 63t-58 26h-53q-41 0 -71 -32t-30 -77
h-109q0 91 61.5 155t148.5 64h53q80 0 136 -58.5t56 -140.5z" />
    <glyph glyph-name="four" unicode="4" horiz-adv-x="487" 
d="M387 393v-84h31v-109h-31v-195h-109v195h-278v179l289 372h135l-315 -410v-32h169v84h109z" />
    <glyph glyph-name="five" unicode="5" horiz-adv-x="516" 
d="M263 5h-53q-87 0 -148.5 64t-61.5 154h109q0 -45 30 -77t71 -32h53q34 0 58 26t24 63v33q0 34 -24 55q-16 14 -38 14h-283v448h418v-110h-309v-228h174q63 0 111 -43q61 -55 61 -136v-33q0 -82 -56.5 -140t-135.5 -58z" />
    <glyph glyph-name="six" unicode="6" horiz-adv-x="563" 
d="M419 372q61 -55 61 -136v-33q0 -82 -56 -140t-135 -58h-53q-34 0 -65.5 9.5t-70.5 45t-63 95.5h-1q-26 67 -33.5 143t1 141t16 99t14.5 58q13 68 67.5 111.5t127.5 43.5h53q72 0 126.5 -43t68.5 -110q3 -9 3 -52h-107q1 3 1 8q0 8 -3 15l-1 5q-5 29 -30 48.5t-58 19.5
h-53q-33 0 -58 -19.5t-30 -48.5l-1 -4l-1 -4q-1 -1 -6.5 -21t-12.5 -60.5t-9 -81.5q27 12 60 12h137q65 0 111 -43zM371 203v33q0 33 -25 55q-16 14 -38 14h-137q-39 0 -54 -37q4 -16 5 -24h1q11 -45 27.5 -74.5t34.5 -40t28 -13t23 -2.5h53q34 0 58 26t24 63z" />
    <glyph glyph-name="seven" unicode="7" horiz-adv-x="459" 
d="M0 8l295 640h-284v101h386v-146l-269 -595h-128z" />
    <glyph glyph-name="eight" unicode="8" horiz-adv-x="506" 
d="M453 553v-33q0 -89 -52 -156q52 -52 52 -128v-33q0 -82 -55.5 -140t-134.5 -58h-19h-34h-19q-79 0 -135 58t-56 140v33q0 76 52 128q-52 69 -52 156v33q0 82 56 140t135 58h19h34h19q79 0 134.5 -58t55.5 -140zM109 553v-33q0 -63 43 -106h40h70h39q43 43 43 106v33
q0 37 -23.5 63t-57.5 26h-19h-34h-19q-34 0 -58 -26t-24 -63zM344 203v33q0 24 -7.5 36t-33.5 33h-41h-70h-41q-27 -21 -34.5 -33t-7.5 -36v-33q0 -37 24 -63t58 -26h19h34h19q34 0 57.5 26t23.5 63z" />
    <glyph glyph-name="nine" unicode="9" horiz-adv-x="525" 
d="M444 602q25 -66 32.5 -142t-1 -141t-15 -99t-14.5 -59q-13 -67 -67.5 -110.5t-126.5 -43.5h-54q-72 0 -126 43t-68 110q-3 8 -4 15.5t0 19.5t1 17l106 -1v-7q0 -10 2 -15l1 -5q5 -29 30 -48.5t58 -19.5h54q32 0 57.5 19.5t29.5 48.5l1 4l1 4q1 1 6.5 21t12.5 60t9 81
q-30 -11 -60 -11h-137q-63 0 -111 42q-60 54 -60 135v34q0 82 56 139.5t135 57.5h53q136 0 198 -150zM309 452q18 0 32.5 10t20.5 27q-1 8 -5 24q-11 45 -27 74t-34.5 39.5t-28 13t-22.5 2.5h-53q-34 0 -58 -25.5t-24 -62.5v-34q0 -33 24 -54q17 -14 38 -14h137z" />
    <glyph glyph-name="colon" unicode=":" horiz-adv-x="174" 
d="M124 538q0 -26 -18 -44t-44 -18t-44 18t-18 44t18 44t44 18t44 -18t18 -44zM124 276q0 -26 -18 -44t-44 -18t-44 18t-18 44t18 44t44 18t44 -18t18 -44z" />
    <glyph glyph-name="semicolon" unicode=";" horiz-adv-x="181" 
d="M124 538q0 -26 -18 -44t-44 -18t-44 18t-18 44t18 44t44 18t44 -18t18 -44zM124 276q1 -4 1.5 -11t-2 -25t-9.5 -33t-24.5 -29.5t-43.5 -18.5v24q27 11 34 34q-9 -3 -18 -3q-26 0 -44 18t-18 44t18 44t44 18t44 -18t18 -44z" />
    <glyph glyph-name="less" unicode="&#x3c;" horiz-adv-x="332" 
d="M281 121q-29 0 -54 11q-167 68 -216 169l-11 21v40l11 21q50 101 215 169h1q23 11 54 11v-87q-6 0 -20 -4l-2 -1q-135 -55 -170 -127l-1 -2l1 -2q35 -71 172 -128q9 -4 20 -4v-87z" />
    <glyph glyph-name="equal" unicode="=" horiz-adv-x="363" 
d="M300 414h-298v83h298v-83zM300 249h-298v82h298v-82z" />
    <glyph glyph-name="greater" unicode="&#x3e;" horiz-adv-x="324" 
d="M0 121v87q12 0 20 4l2 1q134 55 171 127l1 2l-1 2q-37 72 -172 128h-1q-12 4 -20 4v87q31 0 54 -11q167 -68 217 -169l10 -21v-40l-10 -21q-51 -101 -215 -169h-2q-23 -11 -54 -11z" />
    <glyph glyph-name="question" unicode="?" horiz-adv-x="481" 
d="M251 143h-117v50q0 70 31.5 134t87.5 107l24 18q51 40 51 107v32q0 32 -21 55t-50 23h-50q-37 0 -63.5 -28.5t-26.5 -68.5h-117q0 88 60.5 151t146.5 63h50q78 0 133.5 -57.5t55.5 -137.5v-32q0 -58 -26 -111.5t-71 -88.5l-25 -18q-73 -56 -73 -148v-50zM256 63
q0 -26 -18.5 -44.5t-44.5 -18.5t-44.5 18.5t-18.5 44.5q0 25 19 44t44 19q26 0 44.5 -18.5t18.5 -44.5z" />
    <glyph glyph-name="at" unicode="@" horiz-adv-x="703" 
d="M330 690q134 -2 229 -98.5t95 -232.5v-35q0 -62 -28 -120q-29 -58 -93 -58h-161v154h-90v-119h-70v238q0 47 34 81t81 34t81 -34t34 -81v-204h91q21 0 31 20q21 41 21 89v35q0 107 -75 184t-181 78h-2q-105 0 -182 -75q-76 -76 -76 -183t75.5 -182.5t182.5 -75.5h3
q57 -6 110 10v-71q-36 -9 -87 -9q-24 0 -27 1q-135 0 -230.5 96t-95.5 231q0 137 97 232q95 95 230 95h3zM282 376h90v43q0 19 -13 32.5t-32 13.5t-32 -13.5t-13 -32.5v-43z" />
    <glyph glyph-name="A" unicode="A" horiz-adv-x="534" 
d="M240 785q99 0 169 -70.5t70 -169.5v-543h-115v363h-249v-363h-115v543q0 99 70 169.5t170 70.5zM115 480h249v65q0 52 -36.5 88t-87.5 36q-52 0 -88.5 -36t-36.5 -88v-65z" />
    <glyph glyph-name="B" unicode="B" horiz-adv-x="516" 
d="M392 396q74 -69 74 -169q0 -94 -66.5 -160.5t-160.5 -66.5h-207h-32v781h42h201q91 0 156 -64.5t65 -155.5q0 -100 -72 -165zM349 561q0 44 -31 74.5t-75 30.5h-128v-211h124h9q41 0 71 31.5t30 74.5zM239 115q47 0 79.5 32.5t32.5 79.5t-33 80t-79 33h-124v-225h124z
" />
    <glyph glyph-name="C" unicode="C" horiz-adv-x="553" 
d="M395 274h113q1 -72 -11 -112q-14 -71 -71 -116.5t-133 -45.5h-57q-75 0 -132 45.5t-71 116.5q-24 73 -31 153.5t1.5 145.5t15.5 100t14 58q14 71 71 116.5t132 45.5h57q75 0 132 -45t71 -115q6 -16 8.5 -34t3.5 -42.5t3 -37.5h-113q-2 11 -2.5 38.5t-5.5 40.5l-2 5l-1 6
q-5 31 -32 51.5t-62 20.5h-57q-35 0 -62 -20.5t-32 -51.5l-1 -4l-1 -4l-1 -3q-47 -172 -15 -330q6 -33 16 -63l1 -4l1 -4q5 -31 32 -52t62 -21h57q35 0 62 21t32 52l1 4l1 4q5 26 6 81z" />
    <glyph glyph-name="D" unicode="D" horiz-adv-x="600" 
d="M183 785q151 0 258 -107t107 -258v-55q0 -151 -107 -258t-258 -107h-133v1h-50v784h50h133zM433 365v55q0 104 -73.5 177t-176.5 73h-68v-555h68q103 0 176.5 73.5t73.5 176.5z" />
    <glyph glyph-name="E" unicode="E" horiz-adv-x="394" 
d="M334 668h-219v-214h219v-115h-219v-224h219v-115h-334v783h334v-115z" />
    <glyph glyph-name="F" unicode="F" horiz-adv-x="394" 
d="M333 671h-218v-178h218v-115h-218v-378h-115v786h333v-115z" />
    <glyph glyph-name="G" unicode="G" horiz-adv-x="637" 
d="M583 352v-114h-75q-2 -47 -11 -76q-14 -71 -71 -116.5t-133 -45.5h-57q-75 0 -132 45.5t-71 116.5q-24 73 -31 153.5t1.5 145.5t15.5 100t14 58q14 71 71 116.5t132 45.5h57q75 0 132 -45t71 -115q6 -16 8.5 -34t3.5 -42.5t3 -37.5h-113q-2 11 -2.5 38.5t-5.5 40.5l-2 5
l-1 6q-5 31 -32 51.5t-62 20.5h-57q-35 0 -62 -20.5t-32 -51.5l-1 -4l-1 -4l-1 -3q-47 -172 -15 -330q6 -33 16 -63l1 -4l1 -4q5 -31 32 -52t62 -21h57q35 0 62 21t32 52l1 4l1 4q3 14 5 45h-111v114h300z" />
    <glyph glyph-name="H" unicode="H" horiz-adv-x="563" 
d="M383 785h115v-784h-115v473h-268v-473h-115v784h115v-196h268v196z" />
    <glyph glyph-name="I" unicode="I" horiz-adv-x="178" 
d="M115 1h-115v783h115v-783z" />
    <glyph glyph-name="J" unicode="J" horiz-adv-x="253" 
d="M0 -129v116q35 0 59.5 24.5t24.5 59.5v715h116v-715q0 -83 -59 -141.5t-141 -58.5z" />
    <glyph glyph-name="K" unicode="K" horiz-adv-x="553" 
d="M512 1h-125l-153 372q-41 -27 -89 -45l-29 -10v-318h-116v786h116v-345q123 49 215 214l1 1q5 10 5 17v113h116v-113q0 -41 -21 -75q-47 -83 -105 -146z" />
    <glyph glyph-name="L" unicode="L" horiz-adv-x="394" 
d="M334 3h-334v782h115v-667h219v-115z" />
    <glyph glyph-name="M" unicode="M" horiz-adv-x="675" 
d="M470 786h132v-785h-115v629l-109 -124l-24 -27h-106l-23 26l-110 125v-629h-115v785h132l170 -193z" />
    <glyph glyph-name="N" unicode="N" horiz-adv-x="515" 
d="M337 784h115v-783h-115v376l-222 253v-629h-115v785h132l205 -234v232z" />
    <glyph glyph-name="O" unicode="O" horiz-adv-x="600" 
d="M296 3h-56q-76 0 -133.5 45.5t-70.5 115.5q-26 70 -33.5 148.5t1.5 146.5t16 101.5t15 61.5q14 71 71.5 116.5t133.5 45.5h56q76 0 133.5 -45t71.5 -116q26 -69 33 -147.5t-2 -147t-16 -102.5t-15 -61q-14 -71 -71.5 -116.5t-133.5 -45.5zM240 669q-34 0 -60.5 -20.5
t-31.5 -50.5l-1 -4l-1 -4q-1 -3 -7 -24t-13 -63.5t-10 -89.5t3.5 -105.5t25.5 -107.5l2 -5l1 -6q5 -30 31.5 -50.5t60.5 -20.5h56q34 0 60.5 20.5t31.5 50.5l1 4l1 4q1 3 7 24.5t13 63.5t10 89t-3.5 105.5t-25.5 107.5l-2 6l-1 5q-5 30 -31.5 50.5t-60.5 20.5h-56z" />
    <glyph glyph-name="P" unicode="P" horiz-adv-x="537" 
d="M231 781q108 0 185 -77t77 -186t-77 -186t-185 -77h-116v-255h-115v781h115h116zM231 370q61 0 104 43.5t43 104.5t-43 104.5t-104 43.5h-116v-296h116z" />
    <glyph glyph-name="Q" unicode="Q" horiz-adv-x="622" 
d="M588 85l-82 -82l-57 58q-61 -61 -151 -61h-57q-76 0 -133.5 45.5t-71.5 116.5q-26 70 -33.5 149t1.5 148t16 103t15 61q14 71 72 117t134 46h57q76 0 134 -45.5t72 -116.5q25 -68 32.5 -144.5t0 -142.5t-15 -104t-16.5 -66zM298 115q41 0 69 28l-77 76l82 82l37 -38
q36 189 -15 325l-2 5l-1 6q-5 31 -31.5 51t-61.5 20h-57q-35 0 -61.5 -20t-31.5 -51v-4l-2 -4l-1 -3q-49 -177 -19 -325q7 -34 19 -65l2 -6l1 -5q5 -31 32 -51.5t61 -20.5h57z" />
    <glyph glyph-name="R" unicode="R" horiz-adv-x="563" 
d="M497 521q0 -77 -41.5 -141.5t-109.5 -97.5l117 -281h-126l-106 256h-115v-257h-116v786h116h116q110 0 187.5 -78t77.5 -187zM116 670v-298h116q62 0 105.5 44t43.5 105t-43.5 105t-105.5 44h-116z" />
    <glyph glyph-name="S" unicode="S" 
d="M425 520h-115v56q0 39 -28.5 66.5t-68.5 27.5t-68.5 -27.5t-28.5 -66.5q0 -67 60 -103l105 -45q66 -28 105 -87t39 -130q0 -86 -62 -147.5t-150 -61.5t-150.5 61.5t-62.5 147.5v57h116v-57q0 -38 28.5 -65.5t68.5 -27.5t68.5 27.5t28.5 65.5q0 36 -20 66t-54 45l-21 9
l-71 29q-66 28 -105 87t-39 129q0 87 62.5 148.5t150.5 61.5t150 -61.5t62 -148.5v-56z" />
    <glyph glyph-name="T" unicode="T" horiz-adv-x="610" 
d="M519 782v-115h-202v-667h-115v667h-202v115h519z" />
    <glyph glyph-name="U" unicode="U" horiz-adv-x="544" 
d="M240 3q-99 0 -169.5 70.5t-70.5 169.5v542h115v-542q0 -52 36.5 -88.5t88.5 -36.5q51 0 87.5 36.5t36.5 88.5v542h116v-542q0 -99 -70.5 -169.5t-169.5 -70.5z" />
    <glyph glyph-name="V" unicode="V" horiz-adv-x="506" 
d="M249 1h-45l-24 12q-102 52 -168 213v1q-12 27 -12 58v500h115v-500q0 -7 3 -13l1 -2q47 -118 108 -151q59 33 108 152v1q3 6 3 13v500h115v-500q0 -30 -12 -58q-67 -163 -168 -214z" />
    <glyph glyph-name="W" unicode="W" horiz-adv-x="666" 
d="M133 0h-133v786h115v-630l109 124l24 27h106l23 -26l110 -125v630h116v-786h-133l-169 193z" />
    <glyph glyph-name="X" unicode="X" horiz-adv-x="515" 
d="M443 591q-54 -132 -131 -191q78 -60 130 -189v-1q12 -28 12 -58v-152h-115v152q0 7 -3 13l-1 2q-47 117 -108 151q-61 -34 -108 -152l-1 -1q-2 -8 -2 -13v-152h-116v152q0 30 12 57q52 132 130 191q-75 57 -130 189v1q-12 29 -12 59v137h116v-137q0 -5 2 -13l1 -3
q50 -118 108 -151q61 35 109 153v1q3 6 3 13v137h115v-137q0 -30 -11 -58z" />
    <glyph glyph-name="Y" unicode="Y" horiz-adv-x="535" 
d="M339 786h115v-137q0 -30 -11 -58q-63 -155 -158 -209v-382h-116v382q-93 54 -157 207v1q-12 29 -12 59v137h116v-137q0 -5 2 -13l1 -3q50 -118 108 -151q61 35 109 153v1q3 6 3 13v137z" />
    <glyph glyph-name="Z" unicode="Z" horiz-adv-x="496" 
d="M413 786v-155l-302 -525h301v-106h-412v150l305 529h-301v107h409z" />
    <glyph glyph-name="bracketleft" unicode="[" horiz-adv-x="276" 
d="M236 -6h-236v791h236v-88h-149v-615h149v-88z" />
    <glyph glyph-name="backslash" unicode="\" horiz-adv-x="561" 
d="M128 786l357 -778h-133l-352 778h128z" />
    <glyph glyph-name="bracketright" unicode="]" horiz-adv-x="312" 
d="M236 -6h-236v88h149v615h-149v88h236v-791z" />
    <glyph glyph-name="asciicircum" unicode="^" horiz-adv-x="482" 
d="M443 505h-88q0 11 -4 20l-1 2q-55 135 -126 170l-3 1l-2 -1q-72 -35 -127 -172h-1q-4 -14 -4 -20h-87q0 26 11 54q68 166 169 216l21 11h40l22 -11q99 -49 168 -215v-1q12 -26 12 -54z" />
    <glyph glyph-name="underscore" unicode="_" horiz-adv-x="418" 
d="M359 0h-359v87h359v-87z" />
    <glyph glyph-name="grave" unicode="`" horiz-adv-x="189" 
d="M83 782l54 -125h-83l-54 125h83z" />
    <glyph glyph-name="a" unicode="a" horiz-adv-x="496" 
d="M219 715q90 0 154 -64t64 -155v-495h-105v331h-227v-331h-105v495q0 91 64 155t155 64zM105 437h227v59q0 47 -33 80.5t-80 33.5t-80.5 -33.5t-33.5 -80.5v-59z" />
    <glyph glyph-name="b" unicode="b" horiz-adv-x="479" 
d="M357 360q68 -62 68 -154q0 -86 -60.5 -146.5t-146.5 -60.5h-189h-29v712h38v1h184q83 0 142 -59.5t59 -142.5q0 -90 -66 -150zM319 510q0 40 -28.5 68.5t-68.5 28.5h-117v-193h113h8q38 0 65.5 28.5t27.5 67.5zM218 104q42 0 72 30t30 72q0 43 -30 73t-72 30h-113v-205
h113z" />
    <glyph glyph-name="c" unicode="c" horiz-adv-x="525" 
d="M360 249h104q0 -72 -11 -102q-12 -64 -64.5 -106t-121.5 -42h-51q-69 0 -121.5 41.5t-64.5 105.5q-22 67 -28 140.5t1.5 133t14 91.5t12.5 53q12 64 64.5 105.5t121.5 41.5h51q68 0 120.5 -41t65.5 -104q7 -19 9.5 -56.5t4.5 -47.5h-104q-1 9 -1.5 34t-5.5 38l-2 4l-1 5
q-4 28 -29 47t-57 19h-51q-32 0 -57 -19t-29 -47l-1 -3l-1 -4q-1 -1 -6 -21t-11 -57t-8.5 -80.5t3.5 -98.5t22 -104l1 -4l1 -3q5 -29 29.5 -48t56.5 -19h51q32 0 56.5 19t29.5 48l1 3l1 4q5 24 5 74z" />
    <glyph glyph-name="d" unicode="d" horiz-adv-x="562" 
d="M167 715q138 0 235.5 -97.5t97.5 -235.5v-50q0 -138 -97.5 -235.5t-235.5 -97.5h-121v1h-46v715h46h121zM395 332v50q0 94 -66.5 161t-161.5 67h-62v-506h62q94 0 161 67t67 161z" />
    <glyph glyph-name="e" unicode="e" horiz-adv-x="356" 
d="M305 608h-200v-195h200v-105h-200v-204h200v-105h-305v714h305v-105z" />
    <glyph glyph-name="f" unicode="f" horiz-adv-x="357" 
d="M304 611h-199v-163h199v-105h-199v-344h-105v717h304v-105z" />
    <glyph glyph-name="g" unicode="g" horiz-adv-x="609" 
d="M532 321v-105h-69q-3 -47 -10 -69q-12 -64 -64.5 -106t-121.5 -42h-51q-69 0 -121.5 41.5t-64.5 105.5q-22 67 -28 140.5t1.5 133t14 91.5t12.5 53q12 64 64.5 105.5t121.5 41.5h51q68 0 120.5 -41t65.5 -104q7 -19 9.5 -56.5t4.5 -47.5h-104q-1 9 -1.5 34t-5.5 38l-2 4
l-1 5q-4 28 -29 47t-57 19h-51q-32 0 -57 -19t-29 -47l-1 -3l-1 -4q-1 -1 -6 -21t-11 -57t-8.5 -80.5t3.5 -98.5t22 -104l1 -4l1 -3q5 -29 29.5 -48t56.5 -19h51q32 0 56.5 19t29.5 48l1 3l1 4q3 13 4 41h-101v105h274z" />
    <glyph glyph-name="h" unicode="h" horiz-adv-x="516" 
d="M349 715h106v-715h-106v431h-244v-431h-105v715h105v-179h244v179z" />
    <glyph glyph-name="i" unicode="i" horiz-adv-x="168" 
d="M105 0h-105v714h105v-714z" />
    <glyph glyph-name="j" unicode="j" horiz-adv-x="253" 
d="M0 -119v106q32 0 54.5 22.5t22.5 54.5v652h105v-652q0 -76 -53.5 -129.5t-128.5 -53.5z" />
    <glyph glyph-name="k" unicode="k" horiz-adv-x="516" 
d="M467 0h-114l-139 340q-35 -24 -82 -41l-27 -10v-290h-105v717h105v-315q113 47 197 195l1 1q5 10 5 16v103h105v-103q0 -37 -19 -69q-45 -79 -96 -133z" />
    <glyph glyph-name="l" unicode="l" horiz-adv-x="347" 
d="M305 2h-305v713h105v-608h200v-105z" />
    <glyph glyph-name="m" unicode="m" horiz-adv-x="609" 
d="M429 716h120v-716h-105v574l-99 -114l-22 -24h-96l-21 24l-101 114v-574h-105v716h121l154 -176z" />
    <glyph glyph-name="n" unicode="n" 
d="M307 714h105v-714h-105v343l-202 231v-574h-105v716h121l186 -213v211z" />
    <glyph glyph-name="o" unicode="o" horiz-adv-x="537" 
d="M270 2h-51q-69 0 -121 41t-66 105q-23 64 -30 135.5t1.5 134t15 93t13.5 55.5q13 65 65.5 106.5t121.5 41.5h51q69 0 121 -41t66 -105q24 -64 30.5 -136t-1.5 -133t-15 -94t-14 -55q-13 -65 -65.5 -106.5t-121.5 -41.5zM219 609q-31 0 -55 -18.5t-29 -45.5l-1 -4l-1 -4
l-2 -7q-2 -8 -5 -20.5t-6.5 -30t-6.5 -39t-5.5 -45.5t-2.5 -51t2.5 -53.5t8.5 -55t16 -54.5l2 -4l1 -6q5 -27 29 -45.5t55 -18.5h51q31 0 55 18.5t29 45.5l1 4l1 4q1 3 6.5 22.5t12 58t9 81t-3.5 96t-23 98.5l-2 5l-1 5q-5 27 -29 45.5t-55 18.5h-51z" />
    <glyph glyph-name="p" unicode="p" horiz-adv-x="496" 
d="M210 711q99 0 169.5 -70t70.5 -169t-70.5 -169.5t-169.5 -70.5h-105v-233h-105v712h105h105zM210 337q56 0 95.5 39.5t39.5 95.5t-39.5 95.5t-95.5 39.5h-105v-270h105z" />
    <glyph glyph-name="q" unicode="q" horiz-adv-x="563" 
d="M536 76l-74 -74l-53 52q-57 -55 -137 -55h-52q-69 0 -121.5 41.5t-65.5 105.5q-24 64 -31 136t1.5 135.5t14.5 93.5t14 56q13 65 65.5 107t122.5 42h52q69 0 121.5 -41.5t65.5 -105.5q23 -62 30 -132t0 -130.5t-13.5 -94.5t-14.5 -60zM272 104q36 0 63 25l-70 70l74 75
l35 -35q32 175 -15 297l-2 4v5q-5 29 -29.5 47.5t-55.5 18.5h-52q-31 0 -55.5 -18.5t-29.5 -47.5v-3l-1 -4q-1 -3 -6.5 -22.5t-12 -58.5t-9.5 -82t3.5 -97t23.5 -99l2 -4v-6q5 -28 29.5 -46.5t55.5 -18.5h52z" />
    <glyph glyph-name="r" unicode="r" horiz-adv-x="506" 
d="M453 475q0 -71 -38 -130t-100 -88l107 -258h-114l-97 234h-106v-234h-105v717h105h107q100 0 170.5 -70.5t70.5 -170.5zM105 610v-271h107q56 0 96 40t40 96t-40 95.5t-96 39.5h-107z" />
    <glyph glyph-name="s" unicode="s" horiz-adv-x="459" 
d="M388 473h-105v52q0 35 -26 60t-63 25t-63 -25t-26 -60q0 -29 15 -54.5t41 -39.5l96 -42q60 -25 95.5 -79t35.5 -118q0 -79 -57 -135t-137 -56t-137 56t-57 135v51h105v-51q0 -35 26 -60.5t63 -25.5t63 25.5t26 60.5q0 32 -18.5 59.5t-49.5 40.5l-19 9l-65 26
q-60 26 -95.5 80t-35.5 118q0 79 57 135t137 56t137 -56t57 -135v-52z" />
    <glyph glyph-name="t" unicode="t" horiz-adv-x="535" 
d="M473 712v-104h-184v-609h-105v609h-184v104h473z" />
    <glyph glyph-name="u" unicode="u" horiz-adv-x="506" 
d="M219 2q-91 0 -155 64t-64 155v494h105v-494q0 -47 33.5 -80.5t80.5 -33.5t80 33.5t33 80.5v494h106v-494q0 -91 -64.5 -155t-154.5 -64z" />
    <glyph glyph-name="v" unicode="v" 
d="M227 0h-41l-22 11q-93 47 -153 194v1q-11 27 -11 53v456h105v-456q0 -6 3 -12v-2q44 -107 99 -137q55 32 98 138l1 1q2 8 2 12v456h105v-456q0 -29 -10 -53q-62 -149 -154 -195z" />
    <glyph glyph-name="w" unicode="w" horiz-adv-x="609" 
d="M121 -1h-121v717h105v-575l100 114l21 24h97l21 -23l101 -115v575h105v-717h-121l-155 176z" />
    <glyph glyph-name="x" unicode="x" 
d="M404 538q-49 -119 -119 -174q71 -55 118 -172l1 -2q10 -23 10 -53v-138h-105v138q0 7 -3 12v2q-45 108 -99 138q-55 -30 -99 -139v-1q-3 -5 -3 -12v-138h-105v138q0 26 11 53q48 119 119 174q-72 55 -119 173v1q-11 25 -11 53v125h105v-125q0 -6 3 -12l1 -2
q43 -107 98 -138q55 30 99 139v1q3 6 3 12v125h105v-125q0 -29 -10 -53z" />
    <glyph glyph-name="y" unicode="y" horiz-adv-x="469" 
d="M309 716h105v-125q0 -29 -10 -53q-57 -141 -144 -190v-349h-106v349q-85 48 -143 189v1q-11 25 -11 53v125h105v-125q0 -6 3 -12l1 -2q43 -107 98 -138q55 30 99 139v1q3 6 3 12v125z" />
    <glyph glyph-name="z" unicode="z" horiz-adv-x="431" 
d="M377 716v-141l-276 -479h275v-97h-376v137l278 483h-275v97h374z" />
    <glyph glyph-name="braceleft" unicode="{" horiz-adv-x="363" 
d="M148 455l-1 -3q-8 -36 -36 -65q27 -27 36 -64l1 -3v-4q2 -52 27 -103t47 -76.5t46 -46.5q10 -9 24 -9h27v-87h-27q-47 0 -81 31q-55 47 -99.5 118.5t-50.5 163.5q-9 37 -61 37v43v44q51 0 61 36q6 93 50.5 164.5t99.5 118.5q33 30 81 30h27v-86h-27q-14 0 -24 -9
q-114 -101 -120 -227v-3z" />
    <glyph glyph-name="bar" unicode="|" horiz-adv-x="182" 
d="M115 -3h-115v783h115v-783z" />
    <glyph glyph-name="braceright" unicode="}" horiz-adv-x="339" 
d="M319 387v-43q-21 0 -36 -8t-19 -15t-6 -13q-10 -160 -149 -283q-36 -31 -82 -31h-27v87h27q15 0 24 9q24 21 46.5 47t47 76.5t27.5 102.5v4v3q9 37 36 64q-28 29 -36 65v3v3q-4 75 -42 133.5t-79 93.5q-9 9 -24 9h-27v86h27q47 0 82 -30q139 -123 149 -283q10 -36 61 -36
v-44z" />
    <glyph glyph-name="asciitilde" unicode="~" horiz-adv-x="277" 
d="M242 433v-106q-28 -11 -57 -11q-12 0 -18 1l-125 17q-24 3 -42 -15v100q29 8 54 4l125 -16q26 -5 48 17l12 12z" />
    <glyph glyph-name="sterling" unicode="&#xa3;" horiz-adv-x="637" 
d="M216 547l-1 -4l-1 -5q-1 -4 -3 -11.5t-4.5 -18t-5.5 -25t-5 -30t-4.5 -34.5t-3.5 -38v0h171v-87h-171v0q5 -80 27 -147l1 -4l1 -4q4 -18 10 -28l254 -18q26 -5 48 17l12 12l3 -3v-106q-28 -11 -57 -11q-12 0 -18 1l-338 25q-24 3 -42 -15v100q7 2 19 4q-27 80 -32 177
h-76v87h76q6 113 32 192q15 77 77 149t132 72h57q75 0 132 -45t71 -115q5 -1 -106 -35l-2 5l-1 6q-5 31 -32 51.5t-62 20.5h-57q-31 0 -62.5 -47t-37.5 -84z" />
    <glyph glyph-name="yen" unicode="&#xa5;" horiz-adv-x="535" 
d="M339 783h115v-137q0 -30 -11 -58q-62 -151 -153 -206h133v-83h-138v-83h138v-82h-138v-137h-116v137h-124v82h124v83h-124v83h119q-90 55 -152 204v1q-12 29 -12 59v137h116v-137q0 -5 2 -13l1 -3q50 -118 108 -151q61 35 109 153v1q3 6 3 13v137z" />
    <glyph glyph-name="Euro" unicode="&#x20ac;" horiz-adv-x="623" 
d="M465 290h113q1 -72 -11 -112q-14 -71 -71 -116.5t-133 -45.5h-57q-75 0 -132 45.5t-71 116.5q-14 41 -22 87h-81v82h72v-1v1q-3 39 -1 82l-1 1h-70v83h77h1q9 69 25 122q14 71 71 116.5t132 45.5h57q75 0 132 -45t71 -115q6 -16 8.5 -34t3.5 -42.5t3 -37.5h-113
q-2 11 -2.5 38.5t-5.5 40.5l-2 5l-1 6q-5 31 -32 51.5t-62 20.5h-57q-35 0 -62 -20.5t-32 -51.5l-1 -4l-1 -4l-1 -5l-3 -12t-4.5 -19t-5.5 -26t-5 -30h188v-83h-196q-2 -44 1 -83h195v-82h-184q5 -25 15 -56l1 -4l1 -4q5 -31 32 -52t62 -21h57q35 0 62 21t32 52l1 4l1 4
q5 26 6 81z" />
    <glyph glyph-name="l_o" unicode="&#xe000;" horiz-adv-x="653" 
d="M443 139h-42q-55 0 -98 33.5t-54 85.5q-25 67 -25 150.5t8 124t17 66.5q10 53 53 87t99 34h42q56 0 99 -33t54 -86q25 -67 25 -150.5t-8 -122.5t-17 -68q-11 -53 -54 -87t-99 -34zM404 603q-22 0 -38.5 -12.5t-19.5 -30.5l-1 -4v-2l-1 -5q-2 -5 -4 -14t-4.5 -21t-4.5 -27
t-3.5 -31.5t-1.5 -35.5t1.5 -37.5t5.5 -38t11 -37.5l1 -3l1 -4q3 -18 19.5 -31t38.5 -13h36q22 0 38.5 13t19.5 31l1 3l1 2l2 5q1 5 3 14t4.5 21t4.5 27t3.5 31.5t1.5 35.5t-1.5 37.5t-6 38t-11.5 37.5l-1 3l-1 5q-3 18 -19.5 30.5t-38.5 12.5h-36zM450 2h-450v713h105v-608
h345v-105z" />
    <glyph glyph-name="L_O" unicode="&#xe001;" horiz-adv-x="697" 
d="M474 149h-45q-59 0 -104.5 35.5t-57.5 91.5q-27 72 -27.5 160.5t9 134t18.5 70.5q11 57 57 93.5t105 36.5h45q61 0 106.5 -36t57.5 -92q27 -72 27 -160.5t-8.5 -131.5t-18.5 -73q-12 -57 -57.5 -93t-106.5 -36zM471 646h-38q-23 0 -41 -13.5t-22 -33.5l-1 -4v-2l-1 -5
q-2 -6 -4.5 -15.5t-5 -22.5t-4.5 -29t-4 -34t-2 -38t2 -39.5t6.5 -40.5t11.5 -40l1 -4l1 -4q4 -20 22 -33.5t41 -13.5h38q23 0 41 13.5t21 33.5l1 3l1 2l3 9q2 9 5 24t6.5 35t5 44t1 49t-6 52.5t-14.5 51.5l-1 3l-1 5q-3 20 -21 33.5t-41 13.5zM482 114v-112h-482v763h112
v-651h370z" />
    <glyph glyph-name="o.01" unicode="&#xe002;" horiz-adv-x="342" 
d="M300 695v-83h-298v83h298zM297 140v-82h-298v82h298zM161 174h-29q-39 0 -69 23t-37 60q-39 106 0 237q8 37 37.5 60.5t68.5 23.5h29q39 0 69 -23t37 -60q18 -47 18 -104.5t-6 -86.5t-12 -46q-7 -37 -37 -60.5t-69 -23.5zM159 497h-25q-14 0 -26 -9t-14 -22l-1 -1v-3
q-3 -11 -7.5 -28.5t-5 -63t12.5 -80.5v-1l1 -3q2 -13 14 -22t26 -9h25q15 0 27 9t13 22l1 1l1 2l1 3l2.5 10t3 14.5t3 19t2.5 22.5t1 25t-1 26t-4 26.5t-8 26.5l-1 2l-1 2q-1 13 -13 22t-27 9z" />
    <glyph glyph-name="t_o" unicode="&#xe003;" horiz-adv-x="600" 
d="M253 565v-57h-98v-326h-57v326h-98v57h253zM419 184h-28q-37 0 -65 22.5t-35 56.5q-38 101 0 223q7 35 35 57.5t65 22.5h28q37 0 64.5 -22t34.5 -57q17 -44 17.5 -98t-5.5 -82.5t-12 -42.5q-6 -35 -34 -57.5t-65 -22.5zM417 495h-25q-14 0 -26 -8.5t-14 -21.5l-1 -2v-2
l-1 -3l-2.5 -10t-3 -14.5t-3 -19t-2.5 -22t-1.5 -24.5t0.5 -25.5t4 -26.5t7 -26l2 -2l1 -3q2 -13 14 -21.5t26 -8.5h25q14 0 25.5 8.5t15.5 21.5v2v3q3 10 7 28t5 63t-12 79v2v3q-4 13 -15.5 21.5t-25.5 8.5zM546 695v-83h-544v83h544zM543 140v-82h-544v82h544z" />
    <glyph glyph-name="t_h_e" unicode="&#xe004;" horiz-adv-x="825" 
d="M269 576v-59h-104v-347h-60v347h-105v59h269zM504 578h59v-407h-59v245h-139v-245h-60v407h60v-102h139v102zM772 517h-114v-111h114v-60h-114v-115h114v-61h-174v407h174v-60zM777 695v-83h-775v83h775zM774 140v-82h-775v82h775z" />
    <glyph glyph-name="f_o_r" unicode="&#xe005;" horiz-adv-x="793" 
d="M166 523h-109v-91h109v-57h-109v-189h-57v394h166v-57zM344 188h-27q-39 0 -67.5 22t-36.5 58q-9 24 -13 51t-4 49t2.5 46t5 38t6 29t3.5 16q8 36 36.5 59t67.5 23h27q38 0 67 -22.5t37 -57.5q34 -94 0 -229q-8 -36 -37 -59t-67 -23zM317 522q-18 0 -31 -10.5t-15 -25.5
l-1 -2l-1 -3v-1q-32 -112 0 -194l1 -1l1 -4q2 -15 15 -25.5t31 -10.5h27q18 0 31 10.5t16 25.5v2v3q2 0 8.5 30.5t8 74t-15.5 89.5l-1 3v3q-3 15 -16 25.5t-31 10.5h-27zM740 446q0 -38 -20.5 -69.5t-54.5 -48.5l58 -142h-63l-53 129h-58v-129h-58v394h58h58
q56 0 94.5 -38.5t38.5 -95.5zM549 522v-150h58q31 0 53.5 22t22.5 52q0 32 -22 54t-54 22h-58zM745 695v-83h-748v83h748zM742 140v-82h-748v82h748z" />
    <glyph glyph-name="o_f" unicode="&#xe006;" horiz-adv-x="547" 
d="M488 510h-109v-91h109v-57h-109v-189h-57v394h166v-57zM150 175h-27q-39 0 -67.5 22t-36.5 58q-9 24 -13 51t-4 49t2.5 46t5 38t6 29t3.5 16q8 36 36.5 59t67.5 23h27q38 0 67 -22.5t37 -57.5q34 -94 0 -229q-8 -36 -37 -59t-67 -23zM148 494h-24q-16 0 -27.5 -9
t-13.5 -23v-2l-1 -3l-1 -3l-2.5 -10t-3.5 -14.5t-3.5 -19t-2.5 -22.5t-1 -25t1.5 -26t4.5 -26.5t8 -26.5l1 -1v-4q2 -14 13.5 -23t27.5 -9h24q16 0 28 9t14 23v2v3q2 0 7.5 27.5t7 65.5t-13.5 79l-1 3v3q-2 14 -14 23t-28 9zM494 695v-83h-497v83h497zM491 140v-82h-497v82
h497z" />
    <glyph glyph-name="a_n_d" unicode="&#xe007;" horiz-adv-x="868" 
d="M797 695v-83h-797v83h797zM794 140v-82h-797v82h797zM120 578q49 0 83.5 -35t34.5 -84v-270h-57v180h-124v-180h-57v270q0 50 35 84.5t85 34.5zM57 426h124v33q0 25 -18 43.5t-43 18.5q-26 0 -44.5 -18t-18.5 -44v-33zM433 578h58v-390h-58v187l-110 127v-314h-58v391h67
l101 -116v115zM618 578q75 0 128.5 -53t53.5 -129v-27q0 -75 -53.5 -128.5t-128.5 -53.5h-66v1h-25v390h25h66zM742 369v27q0 52 -36 88.5t-88 36.5h-34v-276h34q52 0 88 36.5t36 87.5z" />
    <glyph glyph-name="l_a" unicode="&#xe008;" horiz-adv-x="772" 
d="M375 2h-375v713h105v-608h270v-105zM483 715q90 0 154 -64t64 -155v-495h-105v331h-227v-174h-105v338q0 91 64 155t155 64zM369 437h227v59q0 47 -33 80.5t-80 33.5t-80.5 -33.5t-33.5 -80.5v-59z" />
    <glyph glyph-name="T_H" unicode="&#xe009;" horiz-adv-x="1029" 
d="M836 785h115v-784h-115v359h-268v-359h-115v595h115v-121h268v310zM568 782v-115h-251v-667h-115v667h-202v115h568z" />
    <glyph glyph-name="e_h" unicode="&#xe00a;" horiz-adv-x="872" 
d="M305 608h-200v-195h200v-105h-200v-204h356v-105h-461v714h305v-105zM705 715h106v-715h-106v431h-244v-273h-105v557h105v-179h244v179z" />
    <glyph glyph-name="e_i" unicode="&#xe00b;" horiz-adv-x="524" 
d="M305 608h-200v-195h200v-105h-200v-204h358v-105h-463v714h305v-105zM462 155h-1h-105v559h105z" />
    <glyph glyph-name="l_h" unicode="&#xe00c;" horiz-adv-x="863" 
d="M450 2h-450v713h105v-608h345v-105zM696 715h106v-715h-106v431h-244v-263h-105v547h105v-179h244v179z" />
    <glyph glyph-name="l_i" unicode="&#xe00d;" horiz-adv-x="515" 
d="M453 2h-453v713h105v-608h348v-105zM452 165h-105v549h105v-549z" />
    </font>
</defs>
</svg>
